<svg id="visual" viewBox="0 0 960 300" width="960" height="300" xmlns="http://www.w3.org/2000/svg" xmlns:xlink="http://www.w3.org/1999/xlink" version="1.1"><rect x="0" y="0" width="960" height="300" fill="#ffffff"></rect><path d="M0 144L22.8 150C45.7 156 91.3 168 137 172.3C182.7 176.7 228.3 173.3 274 187.8C319.7 202.3 365.3 234.7 411.2 234C457 233.3 503 199.7 548.8 182.8C594.7 166 640.3 166 686 176.7C731.7 187.3 777.3 208.7 823 225.2C868.7 241.7 914.3 253.3 937.2 259.2L960 265L960 0L937.2 0C914.3 0 868.7 0 823 0C777.3 0 731.7 0 686 0C640.3 0 594.7 0 548.8 0C503 0 457 0 411.2 0C365.3 0 319.7 0 274 0C228.3 0 182.7 0 137 0C91.3 0 45.7 0 22.8 0L0 0Z" fill="#fa7268"></path><path d="M0 183L22.8 170.8C45.7 158.7 91.3 134.3 137 121.7C182.7 109 228.3 108 274 119.3C319.7 130.7 365.3 154.3 411.2 154.5C457 154.7 503 131.3 548.8 130C594.7 128.7 640.3 149.3 686 162C731.7 174.7 777.3 179.3 823 182.7C868.7 186 914.3 188 937.2 189L960 190L960 0L937.2 0C914.3 0 868.7 0 823 0C777.3 0 731.7 0 686 0C640.3 0 594.7 0 548.8 0C503 0 457 0 411.2 0C365.3 0 319.7 0 274 0C228.3 0 182.7 0 137 0C91.3 0 45.7 0 22.8 0L0 0Z" fill="#eb5967"></path><path d="M0 67L22.8 80C45.7 93 91.3 119 137 130.3C182.7 141.7 228.3 138.3 274 136.2C319.7 134 365.3 133 411.2 122.7C457 112.3 503 92.7 548.8 93.8C594.7 95 640.3 117 686 127.7C731.7 138.3 777.3 137.7 823 132.8C868.7 128 914.3 119 937.2 114.5L960 110L960 0L937.2 0C914.3 0 868.7 0 823 0C777.3 0 731.7 0 686 0C640.3 0 594.7 0 548.8 0C503 0 457 0 411.2 0C365.3 0 319.7 0 274 0C228.3 0 182.7 0 137 0C91.3 0 45.7 0 22.8 0L0 0Z" fill="#da3f67"></path><path d="M0 71L22.8 70.7C45.7 70.3 91.3 69.7 137 65.5C182.7 61.3 228.3 53.7 274 48.8C319.7 44 365.3 42 411.2 48.7C457 55.3 503 70.7 548.8 75.7C594.7 80.7 640.3 75.3 686 66.2C731.7 57 777.3 44 823 40.7C868.7 37.3 914.3 43.7 937.2 46.8L960 50L960 0L937.2 0C914.3 0 868.7 0 823 0C777.3 0 731.7 0 686 0C640.3 0 594.7 0 548.8 0C503 0 457 0 411.2 0C365.3 0 319.7 0 274 0C228.3 0 182.7 0 137 0C91.3 0 45.7 0 22.8 0L0 0Z" fill="#c62368"></path></svg>