<svg id="visual" viewBox="0 0 960 300" width="960" height="300" xmlns="http://www.w3.org/2000/svg" xmlns:xlink="http://www.w3.org/1999/xlink" version="1.1"><path d="M0 34L14.5 36.5C29 39 58 44 87.2 48.5C116.3 53 145.7 57 174.8 58C204 59 233 57 262 55.5C291 54 320 53 349 48C378 43 407 34 436.2 36C465.3 38 494.7 51 523.8 54.5C553 58 582 52 611 47.5C640 43 669 40 698 42C727 44 756 51 785.2 55C814.3 59 843.7 60 872.8 55.5C902 51 931 41 945.5 36L960 31L960 0L945.5 0C931 0 902 0 872.8 0C843.7 0 814.3 0 785.2 0C756 0 727 0 698 0C669 0 640 0 611 0C582 0 553 0 523.8 0C494.7 0 465.3 0 436.2 0C407 0 378 0 349 0C320 0 291 0 262 0C233 0 204 0 174.8 0C145.7 0 116.3 0 87.2 0C58 0 29 0 14.5 0L0 0Z" fill="#c4affd"></path><path d="M0 91L14.5 102.5C29 114 58 137 87.2 144C116.3 151 145.7 142 174.8 133C204 124 233 115 262 115.5C291 116 320 126 349 129.5C378 133 407 130 436.2 128C465.3 126 494.7 125 523.8 122.5C553 120 582 116 611 120.5C640 125 669 138 698 142.5C727 147 756 143 785.2 141C814.3 139 843.7 139 872.8 129C902 119 931 99 945.5 89L960 79L960 29L945.5 34C931 39 902 49 872.8 53.5C843.7 58 814.3 57 785.2 53C756 49 727 42 698 40C669 38 640 41 611 45.5C582 50 553 56 523.8 52.5C494.7 49 465.3 36 436.2 34C407 32 378 41 349 46C320 51 291 52 262 53.5C233 55 204 57 174.8 56C145.7 55 116.3 51 87.2 46.5C58 42 29 37 14.5 34.5L0 32Z" fill="#b69dfc"></path><path d="M0 160L14.5 170C29 180 58 200 87.2 207C116.3 214 145.7 208 174.8 199.5C204 191 233 180 262 180C291 180 320 191 349 195C378 199 407 196 436.2 195.5C465.3 195 494.7 197 523.8 192.5C553 188 582 177 611 178.5C640 180 669 194 698 200.5C727 207 756 206 785.2 203.5C814.3 201 843.7 197 872.8 189C902 181 931 169 945.5 163L960 157L960 77L945.5 87C931 97 902 117 872.8 127C843.7 137 814.3 137 785.2 139C756 141 727 145 698 140.5C669 136 640 123 611 118.5C582 114 553 118 523.8 120.5C494.7 123 465.3 124 436.2 126C407 128 378 131 349 127.5C320 124 291 114 262 113.5C233 113 204 122 174.8 131C145.7 140 116.3 149 87.2 142C58 135 29 112 14.5 100.5L0 89Z" fill="#a78bfa"></path><path d="M0 262L14.5 261.5C29 261 58 260 87.2 261.5C116.3 263 145.7 267 174.8 270C204 273 233 275 262 274C291 273 320 269 349 269C378 269 407 273 436.2 276C465.3 279 494.7 281 523.8 277.5C553 274 582 265 611 259.5C640 254 669 252 698 252.5C727 253 756 256 785.2 258.5C814.3 261 843.7 263 872.8 265C902 267 931 269 945.5 270L960 271L960 155L945.5 161C931 167 902 179 872.8 187C843.7 195 814.3 199 785.2 201.5C756 204 727 205 698 198.5C669 192 640 178 611 176.5C582 175 553 186 523.8 190.5C494.7 195 465.3 193 436.2 193.5C407 194 378 197 349 193C320 189 291 178 262 178C233 178 204 189 174.8 197.5C145.7 206 116.3 212 87.2 205C58 198 29 178 14.5 168L0 158Z" fill="#9677f0"></path><path d="M0 301L14.5 301C29 301 58 301 87.2 301C116.3 301 145.7 301 174.8 301C204 301 233 301 262 301C291 301 320 301 349 301C378 301 407 301 436.2 301C465.3 301 494.7 301 523.8 301C553 301 582 301 611 301C640 301 669 301 698 301C727 301 756 301 785.2 301C814.3 301 843.7 301 872.8 301C902 301 931 301 945.5 301L960 301L960 269L945.5 268C931 267 902 265 872.8 263C843.7 261 814.3 259 785.2 256.5C756 254 727 251 698 250.5C669 250 640 252 611 257.5C582 263 553 272 523.8 275.5C494.7 279 465.3 277 436.2 274C407 271 378 267 349 267C320 267 291 271 262 272C233 273 204 271 174.8 268C145.7 265 116.3 261 87.2 259.5C58 258 29 259 14.5 259.5L0 260Z" fill="#8564e5"></path></svg>