<svg id="visual" viewBox="0 0 900 600" width="900" height="600" xmlns="http://www.w3.org/2000/svg" xmlns:xlink="http://www.w3.org/1999/xlink" version="1.1"><rect x="0" y="0" width="900" height="600" fill="#ffffff"></rect><path d="M0 172L21.5 185.7C43 199.3 86 226.7 128.8 217.8C171.7 209 214.3 164 257.2 163.5C300 163 343 207 385.8 227.8C428.7 248.7 471.3 246.3 514.2 224.3C557 202.3 600 160.7 642.8 141.3C685.7 122 728.3 125 771.2 129.8C814 134.7 857 141.3 878.5 144.7L900 148L900 601L878.5 601C857 601 814 601 771.2 601C728.3 601 685.7 601 642.8 601C600 601 557 601 514.2 601C471.3 601 428.7 601 385.8 601C343 601 300 601 257.2 601C214.3 601 171.7 601 128.8 601C86 601 43 601 21.5 601L0 601Z" fill="#fa7268"></path><path d="M0 272L21.5 263.5C43 255 86 238 128.8 232.7C171.7 227.3 214.3 233.7 257.2 258.7C300 283.7 343 327.3 385.8 333C428.7 338.7 471.3 306.3 514.2 280C557 253.7 600 233.3 642.8 249.8C685.7 266.3 728.3 319.7 771.2 327.3C814 335 857 297 878.5 278L900 259L900 601L878.5 601C857 601 814 601 771.2 601C728.3 601 685.7 601 642.8 601C600 601 557 601 514.2 601C471.3 601 428.7 601 385.8 601C343 601 300 601 257.2 601C214.3 601 171.7 601 128.8 601C86 601 43 601 21.5 601L0 601Z" fill="#eb5967"></path><path d="M0 369L21.5 370C43 371 86 373 128.8 369.5C171.7 366 214.3 357 257.2 355.3C300 353.7 343 359.3 385.8 361.7C428.7 364 471.3 363 514.2 372C557 381 600 400 642.8 401.8C685.7 403.7 728.3 388.3 771.2 379.5C814 370.7 857 368.3 878.5 367.2L900 366L900 601L878.5 601C857 601 814 601 771.2 601C728.3 601 685.7 601 642.8 601C600 601 557 601 514.2 601C471.3 601 428.7 601 385.8 601C343 601 300 601 257.2 601C214.3 601 171.7 601 128.8 601C86 601 43 601 21.5 601L0 601Z" fill="#da3f67"></path><path d="M0 461L21.5 458.7C43 456.3 86 451.7 128.8 449.2C171.7 446.7 214.3 446.3 257.2 452.7C300 459 343 472 385.8 478.2C428.7 484.3 471.3 483.7 514.2 480.2C557 476.7 600 470.3 642.8 466.8C685.7 463.3 728.3 462.7 771.2 466.2C814 469.7 857 477.3 878.5 481.2L900 485L900 601L878.5 601C857 601 814 601 771.2 601C728.3 601 685.7 601 642.8 601C600 601 557 601 514.2 601C471.3 601 428.7 601 385.8 601C343 601 300 601 257.2 601C214.3 601 171.7 601 128.8 601C86 601 43 601 21.5 601L0 601Z" fill="#c62368"></path></svg>