<svg id="visual" viewBox="0 0 960 300" width="960" height="300" xmlns="http://www.w3.org/2000/svg" xmlns:xlink="http://www.w3.org/1999/xlink" version="1.1"><rect x="0" y="0" width="960" height="300" fill="#001220"></rect><path d="M0 105L22.8 108.5C45.7 112 91.3 119 137 114.2C182.7 109.3 228.3 92.7 274 100.5C319.7 108.3 365.3 140.7 411.2 153.2C457 165.7 503 158.3 548.8 143.3C594.7 128.3 640.3 105.7 686 106.5C731.7 107.3 777.3 131.7 823 134.8C868.7 138 914.3 120 937.2 111L960 102L960 0L937.2 0C914.3 0 868.7 0 823 0C777.3 0 731.7 0 686 0C640.3 0 594.7 0 548.8 0C503 0 457 0 411.2 0C365.3 0 319.7 0 274 0C228.3 0 182.7 0 137 0C91.3 0 45.7 0 22.8 0L0 0Z" fill="#ddd6fe"></path><path d="M0 54L22.8 69.5C45.7 85 91.3 116 137 123.2C182.7 130.3 228.3 113.7 274 98.8C319.7 84 365.3 71 411.2 69.5C457 68 503 78 548.8 93C594.7 108 640.3 128 686 130.8C731.7 133.7 777.3 119.3 823 110.2C868.7 101 914.3 97 937.2 95L960 93L960 0L937.2 0C914.3 0 868.7 0 823 0C777.3 0 731.7 0 686 0C640.3 0 594.7 0 548.8 0C503 0 457 0 411.2 0C365.3 0 319.7 0 274 0C228.3 0 182.7 0 137 0C91.3 0 45.7 0 22.8 0L0 0Z" fill="#c4b5fd"></path></svg>