<svg id="visual" viewBox="0 0 960 300" width="960" height="300" xmlns="http://www.w3.org/2000/svg" xmlns:xlink="http://www.w3.org/1999/xlink" version="1.1"><rect x="0" y="0" width="960" height="300" fill="#ffffff"></rect><path d="M0 110L11.5 106.8C23 103.7 46 97.3 68.8 95C91.7 92.7 114.3 94.3 137.2 97.7C160 101 183 106 205.8 107.7C228.7 109.3 251.3 107.7 274.2 97.2C297 86.7 320 67.3 342.8 70.7C365.7 74 388.3 100 411.2 102.7C434 105.3 457 84.7 480 72.7C503 60.7 526 57.3 548.8 68.3C571.7 79.3 594.3 104.7 617.2 115C640 125.3 663 120.7 685.8 107.2C708.7 93.7 731.3 71.3 754.2 65.7C777 60 800 71 822.8 79.3C845.7 87.7 868.3 93.3 891.2 95.2C914 97 937 95 948.5 94L960 93L960 301L948.5 301C937 301 914 301 891.2 301C868.3 301 845.7 301 822.8 301C800 301 777 301 754.2 301C731.3 301 708.7 301 685.8 301C663 301 640 301 617.2 301C594.3 301 571.7 301 548.8 301C526 301 503 301 480 301C457 301 434 301 411.2 301C388.3 301 365.7 301 342.8 301C320 301 297 301 274.2 301C251.3 301 228.7 301 205.8 301C183 301 160 301 137.2 301C114.3 301 91.7 301 68.8 301C46 301 23 301 11.5 301L0 301Z" fill="#ddd6fe"></path><path d="M0 121L11.5 125.3C23 129.7 46 138.3 68.8 140C91.7 141.7 114.3 136.3 137.2 134.2C160 132 183 133 205.8 142.3C228.7 151.7 251.3 169.3 274.2 174C297 178.7 320 170.3 342.8 162.5C365.7 154.7 388.3 147.3 411.2 142.7C434 138 457 136 480 145.5C503 155 526 176 548.8 174C571.7 172 594.3 147 617.2 140.8C640 134.7 663 147.3 685.8 148.7C708.7 150 731.3 140 754.2 134.2C777 128.3 800 126.7 822.8 136.7C845.7 146.7 868.3 168.3 891.2 179.7C914 191 937 192 948.5 192.5L960 193L960 301L948.5 301C937 301 914 301 891.2 301C868.3 301 845.7 301 822.8 301C800 301 777 301 754.2 301C731.3 301 708.7 301 685.8 301C663 301 640 301 617.2 301C594.3 301 571.7 301 548.8 301C526 301 503 301 480 301C457 301 434 301 411.2 301C388.3 301 365.7 301 342.8 301C320 301 297 301 274.2 301C251.3 301 228.7 301 205.8 301C183 301 160 301 137.2 301C114.3 301 91.7 301 68.8 301C46 301 23 301 11.5 301L0 301Z" fill="#c1b1fd"></path><path d="M0 219L11.5 224C23 229 46 239 68.8 237.5C91.7 236 114.3 223 137.2 223.3C160 223.7 183 237.3 205.8 241.5C228.7 245.7 251.3 240.3 274.2 236C297 231.7 320 228.3 342.8 231.5C365.7 234.7 388.3 244.3 411.2 240.3C434 236.3 457 218.7 480 213.3C503 208 526 215 548.8 220.8C571.7 226.7 594.3 231.3 617.2 234.8C640 238.3 663 240.7 685.8 243.8C708.7 247 731.3 251 754.2 249.8C777 248.7 800 242.3 822.8 238.7C845.7 235 868.3 234 891.2 226.3C914 218.7 937 204.3 948.5 197.2L960 190L960 301L948.5 301C937 301 914 301 891.2 301C868.3 301 845.7 301 822.8 301C800 301 777 301 754.2 301C731.3 301 708.7 301 685.8 301C663 301 640 301 617.2 301C594.3 301 571.7 301 548.8 301C526 301 503 301 480 301C457 301 434 301 411.2 301C388.3 301 365.7 301 342.8 301C320 301 297 301 274.2 301C251.3 301 228.7 301 205.8 301C183 301 160 301 137.2 301C114.3 301 91.7 301 68.8 301C46 301 23 301 11.5 301L0 301Z" fill="#a78bfa"></path></svg>