<svg id="visual" viewBox="0 0 960 300" width="960" height="300" xmlns="http://www.w3.org/2000/svg" xmlns:xlink="http://www.w3.org/1999/xlink" version="1.1"><rect x="0" y="0" width="960" height="300" fill="#93c5fd"></rect><path d="M0 141L22.8 140.2C45.7 139.3 91.3 137.7 137 150C182.7 162.3 228.3 188.7 274 186.3C319.7 184 365.3 153 411.2 134.8C457 116.7 503 111.3 548.8 116.3C594.7 121.3 640.3 136.7 686 153C731.7 169.3 777.3 186.7 823 174.7C868.7 162.7 914.3 121.3 937.2 100.7L960 80L960 0L937.2 0C914.3 0 868.7 0 823 0C777.3 0 731.7 0 686 0C640.3 0 594.7 0 548.8 0C503 0 457 0 411.2 0C365.3 0 319.7 0 274 0C228.3 0 182.7 0 137 0C91.3 0 45.7 0 22.8 0L0 0Z" fill="#ddd6fe" stroke-linecap="round" stroke-linejoin="miter"></path></svg>