<svg id="visual" viewBox="0 0 960 300" width="960" height="300" xmlns="http://www.w3.org/2000/svg" xmlns:xlink="http://www.w3.org/1999/xlink" version="1.1"><rect x="0" y="0" width="960" height="300" fill="#a5b4fc"></rect><path d="M0 90L26.7 84.2C53.3 78.3 106.7 66.7 160 61.7C213.3 56.7 266.7 58.3 320 67.2C373.3 76 426.7 92 480 88.5C533.3 85 586.7 62 640 62.5C693.3 63 746.7 87 800 95.7C853.3 104.3 906.7 97.7 933.3 94.3L960 91L960 0L933.3 0C906.7 0 853.3 0 800 0C746.7 0 693.3 0 640 0C586.7 0 533.3 0 480 0C426.7 0 373.3 0 320 0C266.7 0 213.3 0 160 0C106.7 0 53.3 0 26.7 0L0 0Z" fill="#ffffff" stroke-linecap="round" stroke-linejoin="miter"></path></svg>