<svg id="visual" viewBox="0 0 960 300" width="960" height="300" xmlns="http://www.w3.org/2000/svg" xmlns:xlink="http://www.w3.org/1999/xlink" version="1.1"><rect x="0" y="0" width="960" height="300" fill="#001220"></rect><path d="M0 195L22.8 197.7C45.7 200.3 91.3 205.7 137 205C182.7 204.3 228.3 197.7 274 194C319.7 190.3 365.3 189.7 411.2 193.3C457 197 503 205 548.8 208C594.7 211 640.3 209 686 205.5C731.7 202 777.3 197 823 192C868.7 187 914.3 182 937.2 179.5L960 177L960 301L937.2 301C914.3 301 868.7 301 823 301C777.3 301 731.7 301 686 301C640.3 301 594.7 301 548.8 301C503 301 457 301 411.2 301C365.3 301 319.7 301 274 301C228.3 301 182.7 301 137 301C91.3 301 45.7 301 22.8 301L0 301Z" fill="#fa7268"></path><path d="M0 212L22.8 210.2C45.7 208.3 91.3 204.7 137 207.7C182.7 210.7 228.3 220.3 274 223.3C319.7 226.3 365.3 222.7 411.2 221.3C457 220 503 221 548.8 219.3C594.7 217.7 640.3 213.3 686 210C731.7 206.7 777.3 204.3 823 207.5C868.7 210.7 914.3 219.3 937.2 223.7L960 228L960 301L937.2 301C914.3 301 868.7 301 823 301C777.3 301 731.7 301 686 301C640.3 301 594.7 301 548.8 301C503 301 457 301 411.2 301C365.3 301 319.7 301 274 301C228.3 301 182.7 301 137 301C91.3 301 45.7 301 22.8 301L0 301Z" fill="#ef5f67"></path><path d="M0 234L22.8 235.8C45.7 237.7 91.3 241.3 137 241.7C182.7 242 228.3 239 274 238.8C319.7 238.7 365.3 241.3 411.2 238.8C457 236.3 503 228.7 548.8 229.5C594.7 230.3 640.3 239.7 686 244.8C731.7 250 777.3 251 823 247.7C868.7 244.3 914.3 236.7 937.2 232.8L960 229L960 301L937.2 301C914.3 301 868.7 301 823 301C777.3 301 731.7 301 686 301C640.3 301 594.7 301 548.8 301C503 301 457 301 411.2 301C365.3 301 319.7 301 274 301C228.3 301 182.7 301 137 301C91.3 301 45.7 301 22.8 301L0 301Z" fill="#e34c67"></path><path d="M0 246L22.8 246.8C45.7 247.7 91.3 249.3 137 250.8C182.7 252.3 228.3 253.7 274 253.7C319.7 253.7 365.3 252.3 411.2 251.5C457 250.7 503 250.3 548.8 252.8C594.7 255.3 640.3 260.7 686 261.3C731.7 262 777.3 258 823 256.7C868.7 255.3 914.3 256.7 937.2 257.3L960 258L960 301L937.2 301C914.3 301 868.7 301 823 301C777.3 301 731.7 301 686 301C640.3 301 594.7 301 548.8 301C503 301 457 301 411.2 301C365.3 301 319.7 301 274 301C228.3 301 182.7 301 137 301C91.3 301 45.7 301 22.8 301L0 301Z" fill="#d53867"></path><path d="M0 265L22.8 268.2C45.7 271.3 91.3 277.7 137 278.8C182.7 280 228.3 276 274 273.5C319.7 271 365.3 270 411.2 271.3C457 272.7 503 276.3 548.8 276.3C594.7 276.3 640.3 272.7 686 273.5C731.7 274.3 777.3 279.7 823 280.2C868.7 280.7 914.3 276.3 937.2 274.2L960 272L960 301L937.2 301C914.3 301 868.7 301 823 301C777.3 301 731.7 301 686 301C640.3 301 594.7 301 548.8 301C503 301 457 301 411.2 301C365.3 301 319.7 301 274 301C228.3 301 182.7 301 137 301C91.3 301 45.7 301 22.8 301L0 301Z" fill="#c62368"></path></svg>