<svg id="visual" viewBox="0 0 900 900" width="900" height="900" xmlns="http://www.w3.org/2000/svg" xmlns:xlink="http://www.w3.org/1999/xlink" version="1.1"><g transform="translate(377.8628878005552 477.4622385116701)"><path d="M155.1 -212.8C206 -176.5 255.6 -137.9 318.7 -73C381.8 -8.2 458.4 82.8 446 152.3C433.6 221.9 332.3 269.9 243.2 276.1C154 282.3 77 246.6 -2.9 250.7C-82.9 254.7 -165.8 298.5 -204 275.7C-242.2 253 -235.7 163.7 -248.9 88.9C-262.2 14.1 -295.1 -46.2 -301.8 -120.4C-308.5 -194.6 -288.8 -282.6 -234.2 -317.6C-179.5 -352.7 -89.7 -334.8 -18.8 -309C52.1 -283.1 104.2 -249.1 155.1 -212.8" fill="#BB004B"></path></g></svg>